<?xml version="1.0" encoding="UTF-8"?>
<svg width="221px" height="43px" viewBox="0 0 221 43" version="1.1" xmlns="http://www.w3.org/2000/svg" xmlns:xlink="http://www.w3.org/1999/xlink">
    <!-- Generator: Sketch 54.1 (76490) - https://sketchapp.com -->
    <title>Logo</title>
    <desc>Created with Sketch.</desc>
    <g id="Welcome-Page" stroke="none" stroke-width="1" fill="none" fill-rule="evenodd">
        <g id="example_2" transform="translate(-365.000000, -36.000000)" fill="#FEFEFE">
            <g id="Hero-Banner">
                <g id="Logo" transform="translate(365.000000, 36.000000)">
                    <polygon id="Fill-1" points="12.3138 0.0003 -0.0002 21.3283 12.3138 42.6563 36.9418 42.6563 43.9618 29.8673 33.6278 11.9503 18.5448 11.9503 11.3778 23.1173 25.7948 23.1173 35.2088 39.6563 14.0458 39.6563 3.4638 21.3283 14.0458 3.0003 35.2088 3.0003 47.5448 24.4093 49.2548 21.3283 36.9418 0.0003"></polygon>
                    <g id="Group-22" transform="translate(64.000000, 12.655800)">
                        <path d="M3.916,12.1279 C3.939,12.1519 3.968,12.1639 4,12.1639 L9.52,12.1639 C9.552,12.1639 9.58,12.1519 9.603,12.1279 C9.628,12.1039 9.632,12.0759 9.615,12.0439 L6.832,3.1399 C6.815,3.1079 6.792,3.0919 6.76,3.0919 C6.728,3.0919 6.703,3.1079 6.687,3.1399 L3.903,12.0439 C3.888,12.0759 3.892,12.1039 3.916,12.1279 M11.103,16.8679 L10.239,14.0599 C10.224,14.0119 10.191,13.9879 10.144,13.9879 L3.399,13.9879 C3.352,13.9879 3.319,14.0119 3.304,14.0599 L2.439,16.8679 C2.392,16.9959 2.296,17.0599 2.151,17.0599 L0.208,17.0599 C0.031,17.0599 -0.032,16.9719 0.016,16.7959 L5.271,0.4519 C5.319,0.3239 5.416,0.2599 5.56,0.2599 L7.96,0.2599 C8.103,0.2599 8.199,0.3239 8.248,0.4519 L13.552,16.7959 L13.575,16.8919 C13.575,17.0039 13.504,17.0599 13.359,17.0599 L11.392,17.0599 C11.248,17.0599 11.151,16.9959 11.103,16.8679" id="Fill-2"></path>
                        <path d="M18.5674,16.8682 L14.0554,0.5242 L14.0314,0.4522 C14.0314,0.3242 14.1114,0.2602 14.2714,0.2602 L16.2154,0.2602 C16.3594,0.2602 16.4474,0.3322 16.4794,0.4762 L19.6244,12.4282 C19.6394,12.4602 19.6594,12.4762 19.6834,12.4762 C19.7084,12.4762 19.7274,12.4602 19.7434,12.4282 L22.7194,0.4762 C22.7524,0.3322 22.8394,0.2602 22.9834,0.2602 L24.8794,0.2602 C25.0234,0.2602 25.1114,0.3322 25.1434,0.4762 L28.2884,12.4522 C28.3034,12.4842 28.3194,12.5002 28.3364,12.5002 C28.3514,12.5002 28.3674,12.4842 28.3834,12.4522 L31.5514,0.4762 C31.5844,0.3322 31.6714,0.2602 31.8154,0.2602 L33.6394,0.2602 C33.7194,0.2602 33.7794,0.2842 33.8194,0.3322 C33.8594,0.3802 33.8714,0.4442 33.8554,0.5242 L29.5114,16.8442 C29.4794,16.9882 29.3914,17.0602 29.2484,17.0602 L27.3994,17.0602 C27.2554,17.0602 27.1684,16.9882 27.1354,16.8442 L23.9914,4.4602 C23.9754,4.4122 23.9594,4.3882 23.9434,4.3882 C23.9274,4.3882 23.9114,4.4122 23.8954,4.4602 L20.8474,16.8442 C20.8314,16.9882 20.7434,17.0602 20.5844,17.0602 L18.8324,17.0602 C18.6874,17.0602 18.5994,16.9962 18.5674,16.8682" id="Fill-4"></path>
                        <path d="M47.127,2.252 L38.607,2.252 C38.543,2.252 38.512,2.284 38.512,2.348 L38.512,7.508 C38.512,7.572 38.543,7.604 38.607,7.604 L44.463,7.604 C44.623,7.604 44.703,7.684 44.703,7.844 L44.703,9.356 C44.703,9.516 44.623,9.596 44.463,9.596 L38.607,9.596 C38.543,9.596 38.512,9.628 38.512,9.692 L38.512,14.972 C38.512,15.036 38.543,15.068 38.607,15.068 L47.127,15.068 C47.287,15.068 47.367,15.148 47.367,15.308 L47.367,16.82 C47.367,16.98 47.287,17.06 47.127,17.06 L36.447,17.06 C36.287,17.06 36.207,16.98 36.207,16.82 L36.207,0.5 C36.207,0.34 36.287,0.26 36.447,0.26 L47.127,0.26 C47.287,0.26 47.367,0.34 47.367,0.5 L47.367,2.012 C47.367,2.172 47.287,2.252 47.127,2.252" id="Fill-6"></path>
                        <path d="M52.54,16.6763 C51.636,16.2923 50.939,15.7483 50.452,15.0443 C49.964,14.3403 49.72,13.5163 49.72,12.5723 L49.72,11.8763 C49.72,11.7163 49.8,11.6363 49.96,11.6363 L51.712,11.6363 C51.871,11.6363 51.952,11.7163 51.952,11.8763 L51.952,12.4523 C51.952,13.2683 52.304,13.9403 53.008,14.4683 C53.712,14.9963 54.68,15.2603 55.912,15.2603 C57.016,15.2603 57.848,15.0283 58.408,14.5643 C58.968,14.1003 59.248,13.4923 59.248,12.7403 C59.248,12.2443 59.103,11.8203 58.815,11.4683 C58.527,11.1163 58.107,10.7923 57.556,10.4963 C57.004,10.2003 56.2,9.8443 55.144,9.4283 C53.976,8.9803 53.052,8.5723 52.372,8.2043 C51.691,7.8363 51.128,7.3523 50.68,6.7523 C50.231,6.1523 50.008,5.3963 50.008,4.4843 C50.008,3.1083 50.5,2.0283 51.483,1.2443 C52.468,0.4603 53.8,0.0683 55.479,0.0683 C56.664,0.0683 57.703,0.2683 58.6,0.6683 C59.496,1.0683 60.187,1.6283 60.676,2.3483 C61.164,3.0683 61.408,3.9003 61.408,4.8443 L61.408,5.3243 C61.408,5.4843 61.327,5.5643 61.168,5.5643 L59.368,5.5643 C59.208,5.5643 59.128,5.4843 59.128,5.3243 L59.128,4.9643 C59.128,4.1323 58.796,3.4403 58.132,2.8883 C57.468,2.3363 56.552,2.0603 55.384,2.0603 C54.392,2.0603 53.624,2.2643 53.08,2.6723 C52.536,3.0803 52.264,3.6683 52.264,4.4363 C52.264,4.9643 52.399,5.3963 52.672,5.7323 C52.943,6.0683 53.348,6.3683 53.884,6.6323 C54.42,6.8963 55.24,7.2363 56.344,7.6523 C57.479,8.1003 58.399,8.5123 59.103,8.8883 C59.808,9.2643 60.392,9.7603 60.855,10.3763 C61.319,10.9923 61.552,11.7563 61.552,12.6683 C61.552,14.0763 61.036,15.1923 60.004,16.0163 C58.972,16.8403 57.552,17.2523 55.744,17.2523 C54.512,17.2523 53.443,17.0603 52.54,16.6763" id="Fill-8"></path>
                        <path d="M72.7832,14.2759 C73.4552,13.6039 73.7912,12.7159 73.7912,11.6119 L73.7912,5.7799 C73.7912,4.6599 73.4552,3.7599 72.7832,3.0799 C72.1112,2.4009 71.2312,2.0599 70.1432,2.0599 C69.0542,2.0599 68.1792,2.4009 67.5142,3.0799 C66.8502,3.7599 66.5192,4.6599 66.5192,5.7799 L66.5192,11.6119 C66.5192,12.7159 66.8502,13.6039 67.5142,14.2759 C68.1792,14.9479 69.0542,15.2839 70.1432,15.2839 C71.2312,15.2839 72.1112,14.9479 72.7832,14.2759 M67.0472,16.5559 C66.1502,16.0759 65.4552,15.4009 64.9592,14.5279 C64.4632,13.6559 64.2152,12.6519 64.2152,11.5159 L64.2152,5.8039 C64.2152,4.6679 64.4632,3.6679 64.9592,2.8039 C65.4552,1.9399 66.1502,1.2679 67.0472,0.7879 C67.9432,0.3079 68.9742,0.0679 70.1432,0.0679 C71.3272,0.0679 72.3672,0.3079 73.2622,0.7879 C74.1592,1.2679 74.8552,1.9399 75.3512,2.8039 C75.8462,3.6679 76.0952,4.6679 76.0952,5.8039 L76.0952,11.5159 C76.0952,12.6519 75.8462,13.6559 75.3512,14.5279 C74.8552,15.4009 74.1592,16.0759 73.2622,16.5559 C72.3672,17.0359 71.3272,17.2759 70.1432,17.2759 C68.9742,17.2759 67.9432,17.0359 67.0472,16.5559" id="Fill-10"></path>
                        <path d="M90.7588,0.2603 L92.5828,0.2603 C92.7418,0.2603 92.8228,0.3403 92.8228,0.5003 L92.8228,16.8203 C92.8228,16.9803 92.7418,17.0603 92.5828,17.0603 L90.7588,17.0603 C90.5988,17.0603 90.5188,16.9803 90.5188,16.8203 L90.5188,4.5323 C90.5188,4.4843 90.5028,4.4523 90.4708,4.4363 C90.4388,4.4203 90.4148,4.4363 90.3988,4.4843 L86.9668,9.7163 C86.9028,9.8123 86.8068,9.8603 86.6788,9.8603 L85.7668,9.8603 C85.6548,9.8603 85.5588,9.8123 85.4788,9.7163 L82.0228,4.5323 C82.0068,4.4843 81.9828,4.4683 81.9508,4.4843 C81.9188,4.5003 81.9038,4.5323 81.9038,4.5803 L81.9038,16.8203 C81.9038,16.9803 81.8218,17.0603 81.6628,17.0603 L79.8388,17.0603 C79.6788,17.0603 79.5988,16.9803 79.5988,16.8203 L79.5988,0.5003 C79.5988,0.3403 79.6788,0.2603 79.8388,0.2603 L81.6628,0.2603 C81.7908,0.2603 81.8868,0.3083 81.9508,0.4043 L86.1508,6.6923 C86.1668,6.7083 86.1908,6.7163 86.2228,6.7163 C86.2548,6.7163 86.2788,6.7083 86.2948,6.6923 L90.4708,0.4043 C90.5508,0.3083 90.6468,0.2603 90.7588,0.2603" id="Fill-12"></path>
                        <path d="M107.6787,2.252 L99.1587,2.252 C99.0947,2.252 99.0637,2.284 99.0637,2.348 L99.0637,7.508 C99.0637,7.572 99.0947,7.604 99.1587,7.604 L105.0147,7.604 C105.1747,7.604 105.2547,7.684 105.2547,7.844 L105.2547,9.356 C105.2547,9.516 105.1747,9.596 105.0147,9.596 L99.1587,9.596 C99.0947,9.596 99.0637,9.628 99.0637,9.692 L99.0637,14.972 C99.0637,15.036 99.0947,15.068 99.1587,15.068 L107.6787,15.068 C107.8387,15.068 107.9187,15.148 107.9187,15.308 L107.9187,16.82 C107.9187,16.98 107.8387,17.06 107.6787,17.06 L96.9987,17.06 C96.8387,17.06 96.7587,16.98 96.7587,16.82 L96.7587,0.5 C96.7587,0.34 96.8387,0.26 96.9987,0.26 L107.6787,0.26 C107.8387,0.26 107.9187,0.34 107.9187,0.5 L107.9187,2.012 C107.9187,2.172 107.8387,2.252 107.6787,2.252" id="Fill-14"></path>
                        <path d="M118.6348,12.1279 C118.6578,12.1519 118.6868,12.1639 118.7188,12.1639 L124.2388,12.1639 C124.2708,12.1639 124.2988,12.1519 124.3218,12.1279 C124.3468,12.1039 124.3508,12.0759 124.3338,12.0439 L121.5508,3.1399 C121.5338,3.1079 121.5108,3.0919 121.4788,3.0919 C121.4468,3.0919 121.4218,3.1079 121.4058,3.1399 L118.6218,12.0439 C118.6068,12.0759 118.6108,12.1039 118.6348,12.1279 M125.8218,16.8679 L124.9578,14.0599 C124.9428,14.0119 124.9098,13.9879 124.8628,13.9879 L118.1178,13.9879 C118.0708,13.9879 118.0378,14.0119 118.0228,14.0599 L117.1578,16.8679 C117.1108,16.9959 117.0148,17.0599 116.8698,17.0599 L114.9268,17.0599 C114.7498,17.0599 114.6868,16.9719 114.7348,16.7959 L119.9898,0.4519 C120.0378,0.3239 120.1348,0.2599 120.2788,0.2599 L122.6788,0.2599 C122.8218,0.2599 122.9178,0.3239 122.9668,0.4519 L128.2708,16.7959 L128.2938,16.8919 C128.2938,17.0039 128.2228,17.0599 128.0778,17.0599 L126.1108,17.0599 C125.9668,17.0599 125.8698,16.9959 125.8218,16.8679" id="Fill-16"></path>
                        <path d="M139.4189,7.2441 C139.9539,6.7161 140.2229,6.0201 140.2229,5.1561 C140.2229,4.2761 139.9539,3.5681 139.4189,3.0321 C138.8819,2.4961 138.1739,2.2281 137.2949,2.2281 L133.2859,2.2281 C133.2229,2.2281 133.1899,2.2601 133.1899,2.3241 L133.1899,7.9401 C133.1899,8.0041 133.2229,8.0361 133.2859,8.0361 L137.2949,8.0361 C138.1739,8.0361 138.8819,7.7721 139.4189,7.2441 M140.1869,0.8481 C140.9309,1.2561 141.5069,1.8281 141.9139,2.5641 C142.3219,3.3001 142.5259,4.1481 142.5259,5.1081 C142.5259,6.0681 142.3179,6.9081 141.9019,7.6281 C141.4859,8.3481 140.8979,8.9081 140.1389,9.3081 C139.3779,9.7081 138.5019,9.9081 137.5109,9.9081 L133.2859,9.9081 C133.2229,9.9081 133.1899,9.9401 133.1899,10.0041 L133.1899,16.8201 C133.1899,16.9801 133.1099,17.0601 132.9499,17.0601 L131.1269,17.0601 C130.9669,17.0601 130.8869,16.9801 130.8869,16.8201 L130.8869,0.4761 C130.8869,0.3161 130.9669,0.2361 131.1269,0.2361 L137.6069,0.2361 C138.5819,0.2361 139.4419,0.4401 140.1869,0.8481" id="Fill-18"></path>
                        <path d="M153.6504,7.2441 C154.1854,6.7161 154.4544,6.0201 154.4544,5.1561 C154.4544,4.2761 154.1854,3.5681 153.6504,3.0321 C153.1134,2.4961 152.4054,2.2281 151.5264,2.2281 L147.5174,2.2281 C147.4544,2.2281 147.4214,2.2601 147.4214,2.3241 L147.4214,7.9401 C147.4214,8.0041 147.4544,8.0361 147.5174,8.0361 L151.5264,8.0361 C152.4054,8.0361 153.1134,7.7721 153.6504,7.2441 M154.4184,0.8481 C155.1624,1.2561 155.7384,1.8281 156.1454,2.5641 C156.5534,3.3001 156.7574,4.1481 156.7574,5.1081 C156.7574,6.0681 156.5494,6.9081 156.1334,7.6281 C155.7174,8.3481 155.1294,8.9081 154.3704,9.3081 C153.6094,9.7081 152.7334,9.9081 151.7424,9.9081 L147.5174,9.9081 C147.4544,9.9081 147.4214,9.9401 147.4214,10.0041 L147.4214,16.8201 C147.4214,16.9801 147.3414,17.0601 147.1814,17.0601 L145.3584,17.0601 C145.1984,17.0601 145.1184,16.9801 145.1184,16.8201 L145.1184,0.4761 C145.1184,0.3161 145.1984,0.2361 145.3584,0.2361 L151.8384,0.2361 C152.8134,0.2361 153.6734,0.4401 154.4184,0.8481" id="Fill-20"></path>
                    </g>
                </g>
            </g>
        </g>
    </g>
</svg>